<svg width="30" height="30" viewBox="0 0 30 30" fill="none" xmlns="http://www.w3.org/2000/svg">
<path d="M19.8688 14.4412C19.6563 14.0175 19.2238 13.75 18.7501 13.75H16.2501V1.24998C16.2501 0.55998 15.6913 0 15.0001 0C14.3089 0 13.7501 0.55998 13.7501 1.24998V13.75H11.2501C10.7764 13.75 10.3438 14.0174 10.1313 14.4412C9.92135 14.8649 9.96635 15.3712 10.2501 15.7499L14.0001 20.7499C14.0164 20.7712 14.0414 20.7787 14.0589 20.7987C14.1414 20.8962 14.2389 20.9712 14.3476 21.0399C14.3926 21.0674 14.4276 21.1037 14.4764 21.1262C14.6364 21.2012 14.8114 21.2499 15.0001 21.2499C15.1889 21.2499 15.3639 21.2012 15.5251 21.1262C15.5727 21.1037 15.6089 21.0674 15.6526 21.0399C15.7614 20.9712 15.8589 20.8962 15.9414 20.7987C15.9576 20.7787 15.9839 20.7712 16.0002 20.7499L19.7502 15.7499C20.0351 15.3713 20.0801 14.865 19.8688 14.4412Z" fill="#333333"/>
<path d="M28.75 18.75C28.0588 18.75 27.5 19.31 27.5 20V23.75C27.5 25.8175 25.8175 27.5 23.75 27.5H6.25002C4.18254 27.5 2.50002 25.8175 2.50002 23.75V20C2.50002 19.31 1.94127 18.75 1.25004 18.75C0.55875 18.75 0 19.31 0 20V23.75C0 27.1962 2.80377 30 6.25002 30H23.75C27.1962 30 30 27.1962 30 23.75V20C30 19.31 29.4412 18.75 28.75 18.75Z" fill="#333333"/>
</svg>
