<svg width="30" height="20" viewBox="0 0 30 20" fill="none" xmlns="http://www.w3.org/2000/svg">
<path d="M29.8094 8.97694C29.5414 8.61032 23.1556 0 14.9999 0C6.84412 0 0.458087 8.61032 0.190372 8.97659C-0.0634572 9.3244 -0.0634572 9.79614 0.190372 10.144C0.458087 10.5106 6.84412 19.1209 14.9999 19.1209C23.1556 19.1209 29.5414 10.5105 29.8094 10.1442C30.0635 9.79649 30.0635 9.3244 29.8094 8.97694ZM14.9999 17.1429C8.99229 17.1429 3.78909 11.428 2.24883 9.55977C3.7871 7.68987 8.9794 1.97801 14.9999 1.97801C21.0072 1.97801 26.21 7.69186 27.7509 9.56112C26.2126 11.431 21.0203 17.1429 14.9999 17.1429Z" fill="#333333"/>
<path d="M14.9998 3.62634C11.7278 3.62634 9.06567 6.28844 9.06567 9.56044C9.06567 12.8324 11.7278 15.4945 14.9998 15.4945C18.2718 15.4945 20.9339 12.8324 20.9339 9.56044C20.9339 6.28844 18.2718 3.62634 14.9998 3.62634ZM14.9998 13.5165C12.8183 13.5165 11.0437 11.7418 11.0437 9.56044C11.0437 7.37905 12.8184 5.60441 14.9998 5.60441C17.1812 5.60441 18.9558 7.37905 18.9558 9.56044C18.9558 11.7418 17.1812 13.5165 14.9998 13.5165Z" fill="#333333"/>
</svg>
