<svg width="657" height="1024" viewBox="0 0 657 1024" fill="none" xmlns="http://www.w3.org/2000/svg">
<g opacity="0.2">
<path d="M321.052 1.56654C320.152 2.56654 318.152 7.86654 316.452 13.3665C313.552 22.7665 310.452 27.8665 307.652 27.8665C307.152 27.8665 305.052 28.9665 302.952 30.3665C298.052 33.7665 298.052 36.5665 303.052 41.0665C305.052 42.8665 310.852 46.5665 315.852 49.0665C326.052 54.3665 328.452 56.4665 326.152 57.9665C324.252 59.2665 313.852 58.3665 308.352 56.4665C305.952 55.5665 300.852 52.5665 297.052 49.7665C293.052 46.7665 289.752 44.9665 289.252 45.4665C288.852 45.9665 288.852 50.5665 289.352 55.7665C289.952 60.8665 290.252 65.4665 290.052 65.9665C289.852 66.4665 286.952 64.9665 283.452 62.6665C276.252 57.9665 275.252 58.2665 274.552 65.1665C274.052 69.5665 274.252 69.9665 279.152 75.1665C284.552 80.8665 285.552 84.1665 282.352 85.8665C278.852 87.6665 276.852 86.9665 270.952 81.8665C267.752 79.0665 264.652 76.8665 264.252 76.8665C261.252 76.8665 260.752 84.0665 262.852 95.6665C263.852 101.067 260.652 99.4665 254.452 91.3665C248.352 83.5665 245.452 82.3665 244.152 87.2665C242.452 93.3665 246.852 107.767 254.452 121.467L258.752 129.367L259.052 143.467C259.552 162.167 259.752 161.867 248.252 161.867C235.152 161.867 234.952 164.267 247.352 173.167C256.852 180.067 257.252 181.967 250.352 185.767C244.352 189.067 239.452 188.867 233.452 184.967C230.752 183.267 227.552 181.867 226.252 181.867C220.952 181.867 214.252 188.967 214.252 194.567C214.252 195.567 216.352 199.467 218.752 203.267C221.252 207.067 223.252 210.767 223.252 211.567C223.252 213.467 218.152 213.167 212.452 210.967C209.752 209.867 204.852 208.467 201.452 207.867C192.952 206.167 191.752 207.167 192.552 215.467L193.152 221.567L188.052 222.467C178.552 224.167 179.552 229.567 189.752 231.867C198.452 233.967 199.752 234.867 199.652 239.567C199.552 243.967 196.052 249.867 192.352 251.867C191.252 252.367 186.152 253.267 180.752 253.667C169.452 254.767 167.952 255.667 170.852 259.567C174.352 264.467 179.652 266.367 189.252 266.367C205.552 266.267 214.152 261.867 224.652 248.067C229.452 241.867 234.352 236.667 238.452 233.767C245.152 228.867 256.152 222.367 256.652 222.967C256.852 223.167 257.352 224.767 257.652 226.567C258.352 229.667 258.152 229.867 248.752 236.167C239.852 242.167 238.852 243.067 236.152 248.867C234.452 252.567 230.652 257.767 226.852 261.767L220.452 268.367L219.852 277.367C219.452 282.267 218.952 288.767 218.652 291.567L218.052 296.867L209.652 301.967C205.052 304.867 201.252 307.567 201.252 308.167C201.252 308.767 203.652 308.867 207.952 308.467L214.652 307.767L212.252 310.567C210.852 312.067 208.052 315.167 206.052 317.367L202.252 321.467L206.152 325.267L210.152 329.167L206.252 331.967C200.152 336.367 195.652 343.067 193.752 350.567C191.252 360.167 186.952 368.867 181.652 375.067C179.152 377.967 176.952 381.367 176.652 382.467C175.852 385.567 177.752 388.567 180.952 389.267C184.052 389.967 194.552 387.567 197.752 385.467C199.252 384.467 201.652 378.367 206.252 363.867L212.752 343.667L218.352 339.767C222.652 336.867 224.152 335.167 224.652 332.767C225.652 327.667 225.352 320.767 223.852 315.167L222.452 309.867L240.952 298.867C251.052 292.867 259.552 287.867 259.752 287.867C259.852 287.867 260.352 292.667 260.752 298.567C261.852 316.567 263.852 320.567 273.752 325.467C276.752 326.867 279.252 328.167 279.252 328.267C279.252 328.367 274.952 327.867 269.652 327.067C264.152 326.167 259.752 325.967 259.252 326.467C258.052 327.767 251.252 349.467 251.252 351.967C251.252 353.167 253.852 359.567 256.952 366.067L262.652 377.967L256.052 384.667C247.152 393.767 239.952 402.567 231.952 414.167C225.852 422.867 224.952 424.667 224.152 430.667C223.652 434.367 223.052 437.867 222.852 438.467C222.552 439.167 220.152 440.167 217.352 440.867C214.552 441.567 212.252 442.467 212.252 442.967C212.252 443.867 226.652 456.467 229.452 457.967C230.752 458.667 231.752 458.067 233.952 455.367L236.852 451.867L246.652 466.367C251.952 474.367 256.452 480.867 256.652 480.867C256.752 480.867 258.352 478.867 260.252 476.467C263.452 472.067 263.552 471.767 263.352 462.967C263.252 457.967 263.352 453.867 263.552 453.867C263.752 453.867 267.952 458.867 272.752 464.967L281.652 476.067L286.352 475.567C291.652 474.867 295.352 473.367 303.252 468.367C309.252 464.467 314.352 463.867 318.052 466.467C321.052 468.467 323.352 467.567 327.752 462.767L331.452 458.667L336.552 460.267C339.452 461.167 344.352 462.167 347.552 462.467C353.652 463.167 355.452 464.767 353.252 467.367C352.352 468.467 349.852 468.867 343.852 468.867C339.452 468.867 334.652 469.467 333.352 470.167C332.052 470.767 329.052 474.467 326.852 478.267C324.552 481.967 318.952 490.067 314.352 496.167C306.052 507.167 306.052 507.267 307.652 509.767C315.752 521.967 318.952 535.467 315.952 544.167C314.452 548.567 314.452 548.767 316.752 550.867L319.052 552.967L323.152 550.967C325.352 549.767 327.352 548.867 327.452 548.867C327.652 548.867 327.752 552.967 327.752 558.067V567.267L332.252 568.567L336.752 569.967L343.852 562.267L350.952 554.567L352.452 558.967L353.952 563.367L348.952 569.767L343.952 576.067L345.752 579.467C348.052 583.767 346.852 588.467 343.652 588.167C342.652 588.067 338.752 587.667 335.152 587.267L328.452 586.667L327.452 589.967C324.852 598.467 324.852 599.467 328.452 601.667C333.852 605.067 337.252 608.767 337.252 611.367C337.252 613.267 335.252 615.267 328.252 620.567L319.252 627.367L319.852 631.367C321.352 642.267 320.752 641.367 332.852 650.367L344.352 658.867L341.152 662.867C339.352 665.067 337.552 666.867 337.152 666.867C336.752 666.867 332.952 662.367 328.752 656.867C324.452 651.367 320.752 646.867 320.352 646.867C320.052 646.967 318.252 648.267 316.352 649.867L313.052 652.667L316.152 657.167C317.852 659.667 319.252 662.067 319.252 662.567C319.252 664.367 313.552 670.167 312.552 669.567C311.952 669.167 310.452 665.867 309.252 662.267C307.252 656.467 306.552 655.467 303.352 654.167C297.052 651.467 292.152 651.867 287.852 655.567C283.452 659.467 279.852 660.567 276.952 658.867C275.752 658.267 272.552 654.967 269.852 651.667L264.952 645.767L260.352 650.267C255.752 654.767 255.552 654.867 248.952 654.867C245.252 654.867 242.252 654.667 242.252 654.467C242.252 654.267 243.152 652.067 244.352 649.467C245.452 646.867 246.152 644.067 245.852 643.067C245.552 642.167 240.752 636.867 235.352 631.467L225.352 621.467L219.552 626.967C216.352 629.967 213.652 632.867 213.452 633.567C213.252 634.167 215.852 640.167 219.252 646.867C224.652 657.567 225.152 659.267 223.952 660.767C223.252 661.667 219.252 666.367 215.252 671.167C209.352 678.267 206.352 680.867 200.052 684.567C195.752 686.967 192.252 689.267 192.252 689.467C192.252 690.467 197.452 703.467 198.152 704.167C198.552 704.567 203.552 701.467 209.352 697.267C215.052 693.067 220.452 689.267 221.352 688.867C222.452 688.167 224.352 689.867 229.252 696.067C236.652 705.467 237.052 706.967 237.152 726.967L237.252 739.667L217.752 756.467C207.052 765.767 197.452 773.567 196.552 773.967C195.552 774.267 190.952 774.167 186.252 773.667L177.752 772.767L170.252 780.867L162.752 788.867L145.952 786.167C132.952 784.167 128.852 783.767 128.352 784.767C127.852 785.467 126.952 792.567 126.252 800.667L125.052 815.267L127.352 816.767C131.352 819.267 136.552 825.067 139.452 830.067C142.052 834.567 142.252 834.767 147.952 835.267C151.152 835.667 155.352 836.167 157.452 836.367C160.852 836.867 161.352 836.467 166.252 830.867L171.452 824.867H181.752H192.052L192.652 830.067C192.952 832.967 193.452 838.267 193.752 841.867C194.052 845.467 194.552 849.767 194.852 851.367L195.252 854.467L202.052 854.067C208.052 853.667 209.152 853.267 213.152 849.867L217.552 846.067L221.852 847.567C224.152 848.367 226.552 849.567 227.052 850.167C227.652 850.867 229.652 856.367 231.652 862.467L235.352 873.667L244.052 880.867C252.552 887.967 252.852 888.067 257.152 887.467C259.552 887.167 262.652 886.867 264.052 886.867C265.852 886.867 268.752 884.467 275.152 877.767L283.752 868.667L288.252 869.867C294.252 871.467 302.252 874.867 302.252 875.867C302.252 876.367 298.252 879.967 293.452 884.067C285.552 890.567 284.252 892.067 281.952 897.867C280.452 901.467 279.252 904.967 279.252 905.667C279.252 907.467 276.152 908.567 265.352 910.867C254.352 913.067 256.452 913.767 237.252 901.967L224.752 894.267L208.852 894.767L192.852 895.367L186.652 905.767C183.152 911.467 179.752 916.567 179.052 916.967C178.352 917.467 176.052 917.867 173.952 917.867C170.052 917.867 170.052 917.867 164.952 908.767L163.152 905.467L157.552 911.167L151.852 916.767L154.552 925.467C155.952 930.367 157.052 934.367 156.952 934.467C156.852 934.567 150.952 938.967 143.752 944.267C130.852 953.767 130.752 953.867 125.352 953.567L120.052 953.367L116.752 959.367C113.752 964.667 112.552 965.867 106.152 969.367C99.3518 973.067 98.6518 973.767 96.9518 978.367C95.9518 981.067 94.7518 983.667 94.3518 984.067C93.9518 984.567 84.0518 985.267 72.2518 985.867C60.5518 986.367 50.4518 987.267 50.0518 987.667C49.5518 988.167 49.2518 990.967 49.4518 993.867L49.7518 999.267L59.7518 1002.07C74.6518 1006.37 79.3518 1010.07 81.7518 1019.47L82.8518 1023.97L89.4518 1017.57C93.8518 1013.27 97.0518 1009.07 99.1518 1004.67C100.852 1001.07 102.952 997.567 103.852 996.767C106.252 994.767 111.552 995.167 117.152 997.867C119.952 999.167 122.452 1000.07 122.652 999.767C122.852 999.567 124.652 996.067 126.652 992.067C129.952 985.567 130.552 984.867 132.552 985.367C133.752 985.767 142.852 989.867 152.752 994.567C162.652 999.267 178.852 1006.97 188.652 1011.57L206.652 1020.07L208.452 1017.87C211.152 1014.47 219.152 1000.17 227.652 983.167C231.852 974.767 235.752 967.867 236.352 967.867C236.952 967.867 248.052 970.967 261.052 974.867C295.152 984.767 331.752 994.867 336.752 995.567C341.652 996.167 341.652 996.167 342.752 986.667L343.352 980.867H347.952C350.452 980.867 361.252 981.367 371.952 981.967C382.652 982.567 391.652 982.767 392.052 982.467C392.352 982.067 391.652 977.667 390.452 972.667C389.252 967.667 388.352 963.367 388.552 963.167C388.752 962.967 398.652 969.767 410.452 978.267L431.952 993.767L457.352 991.967L482.752 990.167L494.752 997.867C501.352 1002.07 507.352 1005.87 507.952 1006.27C508.652 1006.67 515.452 1004.27 522.952 1001.07C546.252 990.967 556.452 986.867 558.152 986.867C559.052 986.867 560.652 988.267 561.852 989.967L563.952 992.967L570.752 984.967L577.552 977.067L588.952 975.767C595.152 975.067 600.952 974.067 601.752 973.467C603.252 972.267 609.852 939.167 608.852 938.067C608.352 937.567 588.652 939.967 572.552 942.467C569.052 942.967 569.152 943.167 565.252 928.267C564.752 925.967 563.652 923.567 562.952 922.967C562.152 922.367 556.452 921.467 550.252 920.867C530.252 919.167 534.352 917.167 560.452 915.967L574.552 915.367L579.352 906.367C582.052 901.367 584.252 896.867 584.252 896.167C584.252 895.567 580.952 893.967 577.052 892.667L569.752 890.367L582.552 890.067L595.352 889.767L600.852 886.167C603.852 884.167 606.252 882.167 606.252 881.667C606.252 881.167 604.452 878.367 602.252 875.367C600.052 872.367 598.252 869.767 598.252 869.567C598.252 869.267 601.752 869.967 606.052 870.967C610.252 871.967 614.252 872.767 614.952 872.867C616.452 872.867 632.452 854.067 639.252 844.267C644.852 836.267 651.252 823.967 653.552 816.867C654.352 814.367 655.352 808.467 655.752 803.667L656.452 794.967L652.052 786.667C638.652 760.767 602.252 739.967 572.352 741.067C563.452 741.367 562.252 741.667 558.952 744.167C554.652 747.367 552.452 751.367 551.452 757.067L550.752 761.067L544.252 757.667C537.152 753.967 532.752 748.767 531.752 742.667C530.852 737.667 532.952 735.767 543.352 732.367C549.252 730.367 552.752 728.567 555.152 726.167C558.552 722.767 558.552 722.767 557.952 715.467C557.252 706.367 553.052 693.567 545.852 678.867C542.752 672.567 540.252 666.267 540.252 664.767C540.252 662.367 540.852 661.867 546.052 660.267C551.252 658.567 551.752 658.067 552.052 655.267C552.452 650.967 549.752 644.667 539.852 626.867C528.352 606.267 528.352 606.167 541.052 596.067C543.752 593.967 545.252 591.967 545.252 590.567C545.252 587.767 539.152 581.267 528.652 572.567C521.252 566.467 519.952 564.867 514.152 554.267C503.352 534.667 496.452 528.667 481.052 525.567C471.252 523.567 468.952 521.967 465.252 514.467C460.652 504.967 458.952 492.767 458.952 469.367C458.952 449.067 459.952 436.867 462.952 419.867C463.952 414.667 464.652 408.367 464.752 405.967C464.752 401.667 464.552 401.367 457.752 396.167C448.052 388.667 444.552 382.967 438.352 364.767C432.352 346.867 428.252 339.967 421.852 336.867C417.852 334.967 416.752 334.867 405.652 335.867C399.152 336.467 387.552 337.867 380.052 339.067C364.152 341.467 359.152 341.067 355.952 336.667C354.252 334.367 354.052 333.467 355.052 331.467C356.652 327.867 362.652 326.567 375.252 326.967L385.752 327.367L388.052 322.567C389.352 319.967 390.952 317.567 391.752 317.267C392.452 316.967 396.652 318.267 400.952 320.267C413.352 325.767 413.752 325.867 416.152 324.267C417.852 322.967 418.252 321.767 418.252 316.967C418.252 313.767 417.552 309.167 416.752 306.767C414.952 301.667 410.052 296.267 406.552 295.367C404.352 294.867 405.852 292.967 425.552 272.567C450.352 246.867 459.052 236.967 466.252 226.267C473.052 216.267 475.852 209.967 477.852 200.367C480.052 189.667 481.252 187.667 488.052 183.067C496.252 177.467 497.752 175.467 497.752 170.367C497.752 165.367 496.052 163.067 488.752 158.367C477.852 151.367 452.452 144.567 430.052 142.767C417.552 141.767 416.152 141.367 407.252 137.367C392.852 130.767 393.852 130.767 382.052 137.467L371.752 143.367L354.752 143.667C345.452 143.767 337.152 143.467 336.352 142.967C333.752 141.267 335.952 135.167 340.752 130.267C345.552 125.467 348.752 124.767 353.252 127.367C354.652 128.167 357.352 128.767 359.252 128.867C362.152 128.867 363.652 127.967 368.452 123.167C375.752 115.967 375.852 114.167 369.552 113.367C361.752 112.467 357.952 111.467 357.552 110.267C357.152 108.967 368.952 100.067 400.152 78.2665C411.952 70.0665 423.652 61.4665 426.152 59.2665C433.152 52.9665 443.152 34.3665 441.652 30.4665C439.952 26.0665 418.252 22.8665 385.652 22.1665C357.252 21.5665 359.952 20.8665 353.452 30.2665C351.652 32.8665 349.852 34.7665 349.352 34.4665C348.852 34.1665 348.152 31.7665 347.752 29.1665C346.352 18.9665 339.852 9.06654 330.552 2.86654C325.252 -0.533463 323.152 -0.833463 321.052 1.56654Z" fill="white"/>
<path d="M117.752 386.867L114.752 389.767L107.252 387.367C103.152 385.967 99.5519 384.867 99.1519 384.867C98.7519 384.867 96.6519 388.467 94.3519 392.767L90.2519 400.667L84.0519 399.267C80.7519 398.467 76.1519 396.867 74.0519 395.667C69.2519 392.967 69.5519 392.667 60.2519 408.867C56.2519 415.767 52.5519 421.967 51.9519 422.767C51.0519 423.867 48.6519 423.967 40.5519 423.467C34.8519 423.067 30.2519 423.067 30.2519 423.267C30.2519 423.567 31.6519 426.767 33.4519 430.267C35.2519 433.867 36.3519 437.067 36.0519 437.367C35.7519 437.767 27.8519 440.367 18.5519 443.267C9.25192 446.067 1.15192 448.867 0.451916 449.267C-0.448084 449.767 -0.0480835 450.967 2.05192 453.667C3.55192 455.667 11.7519 466.267 20.2519 477.267L35.7519 497.067L45.5519 496.667C50.8519 496.367 55.5519 495.867 55.8519 495.567C56.1519 495.267 57.2519 490.667 58.3519 485.267C59.3519 479.867 60.7519 475.167 61.3519 474.767C62.9519 473.767 78.2519 470.567 78.8519 471.167C79.0519 471.367 79.8519 476.567 80.4519 482.567L81.5519 493.567L88.9519 499.267L96.2519 504.967L93.1519 510.967C91.4519 514.367 90.2519 517.167 90.4519 517.367C91.0519 517.867 105.052 521.867 106.152 521.867C106.852 521.867 108.252 520.267 109.352 518.367C110.552 516.467 111.952 514.867 112.552 514.867C113.052 514.867 115.852 516.567 118.652 518.667C125.452 523.867 127.552 524.867 131.152 524.867C137.052 524.867 138.952 523.267 143.652 514.567L148.252 506.167L154.052 505.567C157.152 505.167 163.452 504.667 167.852 504.267C177.652 503.467 176.952 505.267 177.852 481.367C178.352 469.467 178.252 464.867 177.452 464.867C176.852 464.867 172.952 465.367 168.752 465.967C162.952 466.867 160.252 466.867 156.752 465.867C154.252 465.167 152.252 464.267 152.252 463.767C152.252 463.367 156.452 459.267 161.652 454.667C169.452 447.767 171.052 445.867 171.152 443.367C171.252 437.567 170.252 435.867 164.252 432.867C160.152 430.767 158.352 429.267 157.852 427.467C156.352 421.467 156.052 412.767 157.252 405.967C158.652 397.567 159.852 399.067 144.852 389.667C135.852 383.967 135.652 383.867 128.252 383.867C121.252 383.867 120.552 384.067 117.752 386.867Z" fill="white"/>
</g>
<path d="M156.657 204.777C146.185 206.801 135.097 215.602 130.609 225.37C120.928 246.49 131.401 269.899 153.929 277.291C157.449 278.435 160.53 278.699 166.25 278.435C175.666 277.995 182.882 274.915 190.186 268.227L195.203 263.651H331.079H467.043L469.067 261.451C471.883 258.459 471.883 253.795 469.243 251.067L467.219 249.131L328.439 248.867C228.732 248.69 188.954 248.955 187.282 249.659C186.05 250.187 183.938 252.123 182.618 253.971C178.13 260.483 170.738 264.091 163.082 263.475C151.729 262.595 143.281 254.675 141.961 243.498C140.377 230.21 152.873 217.626 166.162 219.122C172.674 219.914 176.546 222.114 182.266 228.362L187.194 233.73H352.023H516.852L521.78 228.362C524.508 225.37 528.205 222.202 529.965 221.322C548.533 211.817 569.302 232.586 559.798 251.155C554.429 261.627 541.669 266.467 531.373 261.979C527.501 260.395 520.108 253.795 520.108 252.123C520.108 251.683 518.964 250.803 517.468 250.011C514.476 248.426 496.172 248.162 492.3 249.571C487.283 251.507 487.635 240.066 487.547 421.264V588.909L424.009 612.317L360.384 635.726L359.944 594.981L359.504 554.236L357.391 551.948C354.399 548.78 349.647 548.78 346.655 551.948L344.543 554.236L344.103 594.981L343.663 635.726L280.125 612.317L216.499 588.909V436.136V283.276L214.563 281.515C211.571 278.875 209.723 278.523 206.379 279.843C204.091 280.811 203.211 281.955 202.419 284.508C201.715 286.884 201.539 331.325 201.715 442.472L201.979 597.181L204.179 599.205C205.675 600.701 229.348 609.765 278.541 627.894C318.23 642.414 351.319 654.383 352.023 654.383C352.727 654.383 385.816 642.414 425.505 627.894C474.699 609.765 498.372 600.701 499.868 599.205L502.068 597.181L502.332 430.416L502.508 263.651H505.676C508.316 263.651 509.812 264.443 513.86 268.227C521.164 274.915 528.381 277.995 537.797 278.435C549.413 279.051 558.39 275.531 566.574 267.171C580.918 252.563 580.39 228.626 565.43 214.457C550.733 200.553 528.117 200.553 513.948 214.545L509.636 218.77H352.023H194.411L190.098 214.545C181.21 205.745 169.33 202.313 156.657 204.777Z" fill="#DCEE46"/>
<path d="M349.295 279.579C345.071 281.163 344.543 283.54 344.543 302.02C344.543 318.741 344.543 319.005 346.655 321.205C348.239 322.877 349.735 323.493 352.023 323.493C354.311 323.493 355.807 322.877 357.391 321.205C359.503 319.005 359.503 318.741 359.503 302.02C359.503 283.276 359.063 281.163 354.399 279.491C352.991 279.051 351.759 278.611 351.671 278.699C351.583 278.699 350.527 279.139 349.295 279.579Z" fill="#DCEE46"/>
<path d="M320.729 342.241C314.058 343.299 307.143 345.943 300.634 350.011C294.573 353.753 292.336 357.292 293.068 361.848C293.475 364.207 294.166 365.509 296.973 369.048C298.315 370.675 299.373 372.14 299.373 372.302C299.373 372.465 298.6 373.563 297.705 374.784C296.77 376.004 295.468 378.201 294.776 379.665C290.831 388.37 282.939 395.611 271.59 401.021C265.936 403.706 265 404.723 265 408.14C265.041 410.906 266.627 414.079 269.027 416.113C270.492 417.374 270.654 417.699 270.532 419.123C270.329 422.133 271.875 426.201 274.559 429.699C275.332 430.675 275.902 432.18 276.349 434.58C277.203 438.811 279.319 443.489 280.905 444.628C281.556 445.116 282.858 445.686 283.834 445.97C285.909 446.621 289.081 446.052 292.214 444.465L294.166 443.448L293.963 445.035C293.841 445.889 293.515 449.103 293.231 452.153C292.661 458.499 293.068 464.276 294.492 470.377C295.549 474.811 298.681 481.198 301.61 484.94C302.993 486.689 304.214 488.845 304.702 490.269C306.207 494.662 309.258 499.096 317.882 509.51C332.2 526.757 335.332 531.394 337 537.7C338.383 542.906 339.766 543.272 343.509 539.408C347.861 534.974 350.587 529.238 351.482 522.567C351.766 520.493 352.295 518.54 352.702 517.93C353.8 516.344 357.909 507.882 358.438 506.052L358.926 504.465L360.756 504.71C364.255 505.198 367.143 507.679 370.194 512.764C372.512 516.71 378.411 517.076 381.136 513.455C385.041 508.127 437.231 434.418 437.963 433.157C439.102 431.204 439.143 429.252 438.126 426.974C437.109 424.777 436.418 424.37 430.275 422.377C418.072 418.391 410.221 410.58 406.356 398.58C402.248 385.848 396.106 374.784 389.068 367.543C381.502 359.651 373.244 355.665 361.977 354.445C358.112 353.997 357.665 353.875 356.282 352.655C351.441 348.262 343.549 344.397 336.227 342.811C332.729 342.038 324.065 341.753 320.729 342.241ZM333.583 347.326C344.119 349.156 351.888 353.916 360.105 363.556C363.319 367.299 364.702 368.682 365.394 368.682C366.533 368.682 367.061 368.316 367.672 367.136C368.282 365.997 367.916 365.224 365.15 362.051C364.051 360.75 363.197 359.611 363.319 359.529C363.4 359.448 364.661 359.611 366.085 359.936C374.017 361.604 379.956 365.021 385.895 371.285C392.363 378.119 395.617 384.302 398.424 395.245C400.499 403.421 401.231 409.197 401.231 417.902C401.231 428.519 399.889 436.696 396.594 446.174C393.99 453.659 387.97 464.601 383.251 470.337L381.787 472.126L381.055 468.018C380.648 465.781 379.102 459.191 377.638 453.414C376.133 447.638 374.587 441.252 374.18 439.258C373.285 434.784 373.204 427.909 374.017 423.394C374.343 421.604 374.628 419.814 374.628 419.448C374.628 417.536 371.455 416.763 370.397 418.431C369.461 419.814 368.526 426.079 368.526 430.797C368.526 435.964 369.014 439.381 370.682 445.767C371.821 450.282 371.943 451.177 371.902 457.157C371.902 464.642 371.129 469.035 368.851 475.137C367.55 478.554 364.824 483.638 362.872 486.201L362.099 487.218L361.855 483.557C361.489 478.838 360.268 472.574 358.926 468.547C356.973 462.689 352.295 454.391 349.041 450.933C347.821 449.672 345.949 449.753 345.095 451.055C344.241 452.357 344.485 452.926 347.251 456.587C348.349 458.011 350.18 461.062 351.319 463.259C355.305 471.069 356.851 477.537 356.851 486.242C356.811 494.296 355.305 501.577 352.214 508.411L351.278 510.445L350.749 508.411C349.407 503.571 348.838 502.35 347.658 501.943C346.885 501.659 346.316 501.659 345.868 501.943C344.363 502.879 344.322 503.53 345.583 508.289C346.6 512.276 346.763 513.577 346.722 518.174C346.722 522.771 346.56 523.91 345.624 526.716C344.607 529.849 342.044 534.527 341.434 534.364C341.271 534.323 340.661 533.144 340.051 531.72C337.936 526.635 335.129 522.73 322.966 508.004C313 495.923 311.983 494.581 310.193 490.676C307.875 485.55 307.305 482.459 307.346 475.055C307.387 467.367 308.159 463.096 311.007 454.513C312.634 449.672 316.783 440.601 319.915 434.906C320.851 433.279 320.932 432.872 320.485 432.058C319.875 430.879 319.346 430.513 318.207 430.513C316.987 430.513 315.482 432.628 312.39 438.689C306.248 450.689 302.993 461.713 302.302 472.452L302.017 477.089L300.715 473.835C298.6 468.506 297.949 464.56 297.99 457.157C298.031 447.435 299.983 437.591 304.092 426.567C308.404 414.974 312.024 409.93 327.766 393.496L331.061 390.038V391.665C331.102 395.652 329.149 400.818 326.18 404.723C324.024 407.53 324.187 409.238 326.546 409.97C328.865 410.662 334.112 402.648 335.414 396.343C336.268 392.275 335.983 385.197 334.763 380.479C333.909 377.224 333.868 377.021 334.56 376.614C336.756 375.353 338.749 373.523 339.848 371.733C340.905 370.065 341.068 369.373 341.068 367.095C341.027 363.679 339.97 361.279 337.244 358.39C334.844 355.828 331.671 354.119 328.824 353.794C324.471 353.306 321.38 356.641 320.444 362.906L320.037 365.834H316.905C313.122 365.834 309.014 366.689 306.004 368.072C304.743 368.641 303.604 369.089 303.441 369.089C302.79 369.089 298.153 362.458 297.909 361.197C297.461 358.797 298.641 357.17 302.587 354.567C312.715 347.936 323.17 345.495 333.583 347.326ZM330.532 359.326C333.99 361.034 336.878 365.387 336.227 367.99C335.821 369.74 334.112 371.367 331.509 372.506C327.807 374.173 327.604 374.662 329.068 378.851C329.719 380.763 330.288 382.594 330.288 382.96C330.288 383.326 326.139 388.045 321.054 393.496C309.868 405.374 306.736 409.401 303.075 416.723C300.675 421.523 296.119 433.808 296.119 435.557C296.119 436.167 292.417 438.852 289.61 440.275C287.454 441.374 284.607 441.577 283.712 440.682C283.142 440.072 281.881 436.818 281.312 434.54C281.068 433.523 281.19 433.441 283.02 433.157C285.42 432.791 290.098 431.001 292.376 429.577C294.654 428.113 295.265 426.852 294.329 425.428C293.393 424.045 292.092 424.126 289.081 425.794C286.193 427.421 282.41 428.601 280.783 428.397C279.4 428.235 276.878 425.021 275.942 422.214C274.763 418.716 275.658 416.479 279.319 413.794C281.434 412.208 281.8 411.475 281.231 409.97C281.068 409.604 280.498 409.116 279.97 408.913C278.79 408.465 276.512 409.523 274.193 411.597L272.647 413.021L271.834 412.085C270.817 410.987 269.678 408.831 269.678 407.977C269.678 407.611 271.468 406.513 274.275 405.17C280.336 402.201 285.787 398.54 289.976 394.513C294.085 390.567 296.281 387.557 299.007 382.146C302.22 375.679 305.597 372.831 311.698 371.245C313.692 370.757 315.278 370.675 319.183 370.879C325.082 371.204 324.797 371.448 325.122 365.997C325.326 362.377 326.18 359.448 327.156 358.838C327.929 358.35 328.702 358.472 330.532 359.326ZM407.74 412.411C409.489 414.892 414.248 419.57 416.973 421.441C419.984 423.516 425.109 425.916 429.462 427.258C432.96 428.316 433.651 428.682 433.855 429.496C434.058 430.269 428.974 437.631 405.543 470.662C379.956 506.703 376.906 510.852 375.848 510.974C374.831 511.096 374.546 510.893 373.855 509.51C371.536 504.913 366.817 500.967 362.587 500.032C360.594 499.584 360.35 499.421 360.553 498.689C360.675 498.201 360.797 497.55 360.797 497.184C360.797 496.818 362.058 494.987 363.563 493.116C369.746 485.55 373.041 479.326 375.197 471.191L376.133 467.733L376.661 471.354C376.946 473.347 377.068 476.072 376.906 477.374C376.702 479.408 376.783 479.855 377.475 480.547C379.306 482.377 380.689 481.36 386.261 474.445C394.438 464.235 400.255 452.601 403.509 440.072C405.421 432.587 406.072 427.096 406.112 418.228C406.153 413.794 406.153 410.174 406.194 410.174C406.194 410.174 406.926 411.191 407.74 412.411Z" fill="#DCEE46"/>
<path d="M347.658 368.601C346.519 369.821 346.844 370.919 348.96 373.075C351.441 375.638 353.231 378.241 354.695 381.455C356.892 386.255 357.299 388.614 357.339 395.896C357.339 402.282 357.38 402.567 358.234 403.136C359.373 403.909 360.594 403.502 361.529 402.119C362.099 401.265 362.221 400.045 362.221 395.163C362.221 388.655 361.773 386.051 359.902 381.211C357.583 375.068 351.929 367.868 349.488 367.868C348.838 367.868 348.024 368.194 347.658 368.601Z" fill="#DCEE46"/>
<path d="M329.149 364.085C327.888 367.136 327.644 369.373 328.499 370.35C328.865 370.757 329.719 371.123 330.37 371.123C333.502 371.123 334.112 364.207 331.143 362.58C330.044 362.011 330.085 361.97 329.149 364.085Z" fill="#DCEE46"/>
<path d="M303.115 385.767C300.593 387.312 300.268 390.404 302.383 392.519C303.522 393.658 304.092 393.902 305.475 393.902C306.858 393.902 307.427 393.658 308.566 392.519C310.031 391.055 310.315 389.631 309.543 387.638C309.095 386.377 306.899 384.953 305.475 384.953C304.905 384.953 303.848 385.319 303.115 385.767Z" fill="#DCEE46"/>
<path d="M283.997 413.306C283.021 413.713 282.614 415.462 283.265 416.519C284.648 418.553 287.577 417.862 287.577 415.462C287.577 413.55 285.909 412.533 283.997 413.306Z" fill="#DCEE46"/>
<path d="M278.058 417.292C277.041 418.35 277.244 420.221 278.464 421.035C279.4 421.645 279.644 421.645 280.58 421.116C281.881 420.384 282.37 419.082 281.719 417.862C281.149 416.641 279.034 416.316 278.058 417.292Z" fill="#DCEE46"/>
<path d="M283.549 421.441C282.207 423.109 283.264 425.225 285.38 425.225C287.495 425.225 288.431 422.214 286.681 420.994C285.38 420.058 284.485 420.18 283.549 421.441Z" fill="#DCEE46"/>
<path d="M289.742 785.539H276.805V793.672H292.086V800H268.578V765.875H292.133V772.227H276.805V779.422H289.742V785.539ZM323.938 800H315.758L303.664 778.766V800H295.438V765.875H303.664L315.734 787.109V765.875H323.938V800ZM357.078 795.781C355.812 797.188 353.961 798.32 351.523 799.18C349.086 800.039 346.414 800.469 343.508 800.469C339.039 800.469 335.469 799.102 332.797 796.367C330.125 793.633 328.695 789.828 328.508 784.953L328.484 782C328.484 778.641 329.078 775.711 330.266 773.211C331.453 770.695 333.148 768.766 335.352 767.422C337.57 766.062 340.133 765.383 343.039 765.383C347.289 765.383 350.586 766.359 352.93 768.312C355.289 770.25 356.664 773.148 357.055 777.008H349.133C348.852 775.102 348.242 773.742 347.305 772.93C346.367 772.117 345.039 771.711 343.32 771.711C341.258 771.711 339.664 772.586 338.539 774.336C337.414 776.086 336.844 778.586 336.828 781.836V783.898C336.828 787.305 337.406 789.867 338.562 791.586C339.734 793.289 341.57 794.141 344.07 794.141C346.211 794.141 347.805 793.664 348.852 792.711V787.414H343.133V781.766H357.078V795.781ZM370.086 793.672H384.406V800H361.859V765.875H370.086V793.672ZM407.727 793.625H396.453L394.484 800H385.695L398.211 765.875H405.945L418.555 800H409.719L407.727 793.625ZM398.422 787.273H405.758L402.078 775.438L398.422 787.273ZM449.562 800H441.383L429.289 778.766V800H421.062V765.875H429.289L441.359 787.109V765.875H449.562V800ZM454.766 800V765.875H465.758C468.773 765.875 471.484 766.562 473.891 767.938C476.297 769.297 478.172 771.227 479.516 773.727C480.875 776.211 481.562 779 481.578 782.094V783.664C481.578 786.789 480.914 789.594 479.586 792.078C478.273 794.547 476.414 796.484 474.008 797.891C471.617 799.281 468.945 799.984 465.992 800H454.766ZM462.992 772.227V793.672H465.852C468.211 793.672 470.023 792.836 471.289 791.164C472.555 789.477 473.188 786.977 473.188 783.664V782.188C473.188 778.891 472.555 776.406 471.289 774.734C470.023 773.062 468.18 772.227 465.758 772.227H462.992Z" fill="black"/>
</svg>
