<svg width="100" height="33" viewBox="0 0 100 33" fill="none" xmlns="http://www.w3.org/2000/svg">
<path  d="M43.3509 31.9014H35.1911L40.2909 0.560026H48.4515L43.3509 31.9014ZM28.3266 0.560026L20.5475 22.1169L19.6269 17.4748L19.6278 17.4765L16.8821 3.38196C16.8821 3.38196 16.5501 0.560026 13.0114 0.560026H0.150906L0 1.09071C0 1.09071 3.93276 1.90895 8.53538 4.67304L15.6246 31.9022H24.1264L37.1085 0.560026H28.3266ZM92.5075 31.9014H100L93.4675 0.559188H86.9081C83.8791 0.559188 83.1414 2.89487 83.1414 2.89487L70.9717 31.9014H79.4777L81.1787 27.246H91.5518L92.5075 31.9014ZM83.5287 20.8149L87.8161 9.08618L90.228 20.8149H83.5287ZM71.6097 8.09691L72.7741 1.36653C72.7741 1.36653 69.1809 0 65.4351 0C61.3858 0 51.7698 1.76978 51.7698 10.3756C51.7698 18.4725 63.0558 18.5731 63.0558 22.8261C63.0558 27.0791 52.9326 26.3171 49.5917 23.6351L48.3786 30.6724C48.3786 30.6724 52.0221 32.4422 57.5889 32.4422C63.1573 32.4422 71.5577 29.559 71.5577 21.7119C71.5577 13.563 60.1702 12.8043 60.1702 9.2614C60.171 5.71764 68.1179 6.17287 71.6097 8.09691Z" fill="white"/>
</svg>
